<svg width="72" height="72" viewBox="0 0 72 72" fill="none" xmlns="http://www.w3.org/2000/svg">
  <g id="telescope-core-small">
    <path d="M24.05 36.6L33.6 46.39L17.8 56.86C17.8 56.86 15.89 57.7 13.63 55.26C11.36 52.83 12.12 51.24 12.12 51.24L24.05 36.6Z" fill="url(#paint0_radial)"/>
    <path d="M25.03 34.2L36 46.15L25.06 53.8C25.06 53.8 21.83 55.1 18.1 51.02C14.37 46.94 15.92 44.51 15.92 44.51L25.03 34.2Z" fill="url(#paint1_radial)"/>
    <path d="M39 13.02L59.1 33.68L32.53 50.41C32.53 50.41 28.75 50.26 24.4 45.49C20.05 40.72 21.41 35.81 21.41 35.81L39 13.02Z" fill="url(#paint2_radial)"/>
    <path d="M57.67 15.35C63.1 21.28 63.99 29.29 59.64 33.24C55.29 37.19 47.36 35.58 41.93 29.65C36.5 23.72 35.61 15.71 39.96 11.77C44.31 7.82 52.24 9.42 57.67 15.35Z" fill="url(#paint3_radial)"/>
    <path d="M58.38 31.26C54.81 34.5 48.21 33.08 43.64 28.08C39.07 23.08 38.25 16.39 41.82 13.14C45.39 9.89 51.99 11.32 56.56 16.32C61.13 21.32 61.95 28.01 58.38 31.26Z" fill="url(#paint4_radial)"/>
    <path opacity="0.85" d="M59.68 28.82C60.58 24.18 59.65 20.59 56.16 16.62C52.67 12.65 47.35 10.87 43.78 12.76C39.37 15.1 48.37 13.6 53.46 19.58C57.83 24.72 58.85 33.1 59.68 28.82Z" fill="url(#paint5_radial)"/>
    <path opacity="0.4" d="M50.4 25.25C50.45 26.72 49.29 27.77 47.8 27.58C46.31 27.39 45.06 26.03 45 24.55C44.95 23.07 46.11 22.03 47.6 22.22C49.09 22.41 50.34 23.77 50.4 25.25Z" fill="url(#paint6_radial)"/>
    <path opacity="0.6" d="M36.92 21L26.43 34.36C26.33 36.46 28.29 39.55 30.03 40.83L41.23 29.91C39.6 28.2 36.96 24.1 36.92 21Z" fill="url(#paint7_radial)"/>
    <path fill-rule="evenodd" clip-rule="evenodd" d="M20.06 9.6L21.48 11.72L24 11.07L22.36 13.03L23.78 15.14L21.34 14.24L19.7 16.2L19.84 13.68L17.4 12.78L19.92 12.12L20.06 9.6ZM58.78 52.8L58.96 56.47L62.4 57.42L59.08 58.73L59.26 62.4L57.02 59.55L53.7 60.86L55.64 57.78L53.4 54.93L56.84 55.88L58.78 52.8ZM15.21 24.21L15.88 21L13.48 23.2L10.69 21.56L12 24.55L9.6 26.75L12.81 26.41L14.12 29.4L14.79 26.19L18 25.85L15.21 24.21Z" fill="url(#paint8_linear)"/>
  </g>
  <defs>
    <radialGradient id="paint0_radial" cx="36.69" cy="32.7" r="34.91" gradientUnits="userSpaceOnUse" gradientTransform="rotate(135 36.69 32.7)">
      <stop stop-color="#99421D"/>
      <stop offset="0.33" stop-color="#99161D"/>
      <stop offset="0.66" stop-color="#7D1845"/>
      <stop offset="1" stop-color="#59216E"/>
    </radialGradient>
    <radialGradient id="paint1_radial" cx="42.59" cy="27.3" r="44.55" gradientUnits="userSpaceOnUse" gradientTransform="rotate(135 42.59 27.3)">
      <stop stop-color="#EF7744"/>
      <stop offset="0.33" stop-color="#E50914"/>
      <stop offset="0.66" stop-color="#A70D53"/>
      <stop offset="1" stop-color="#792A95"/>
    </radialGradient>
    <radialGradient id="paint2_radial" cx="42.3" cy="29.1" r="31.81" gradientUnits="userSpaceOnUse" gradientTransform="rotate(135 42.3 29.1)">
      <stop stop-color="#FB540D"/>
      <stop offset="0.33" stop-color="#E50914"/>
      <stop offset="0.66" stop-color="#A70D53"/>
      <stop offset="1" stop-color="#792A95"/>
    </radialGradient>
    <radialGradient id="paint3_radial" cx="57.68" cy="14.71" r="24.04" gradientUnits="userSpaceOnUse" gradientTransform="rotate(134.3 57.68 14.71)">
      <stop stop-color="#FFDCCC"/>
      <stop offset="0.33" stop-color="#FFBDC0"/>
      <stop offset="0.66" stop-color="#F89DC6"/>
      <stop offset="1" stop-color="#E4A1FA"/>
    </radialGradient>
    <radialGradient id="paint4_radial" cx="52.13" cy="21.27" r="9.87" gradientUnits="userSpaceOnUse" gradientTransform="rotate(141.87 52.13 21.27)">
      <stop offset="0.31" stop-color="#F89DC6"/>
      <stop offset="0.65" stop-color="#E75094"/>
      <stop offset="1" stop-color="#59216E"/>
    </radialGradient>
    <radialGradient id="paint5_radial" cx="55.8" cy="15.6" r="13.15" gradientUnits="userSpaceOnUse" gradientTransform="rotate(135 55.8 15.6)">
      <stop stop-color="white"/>
      <stop offset="1" stop-color="white" stop-opacity="0"/>
    </radialGradient>
    <radialGradient id="paint6_radial" cx="49.24" cy="22.96" r="5.09" gradientUnits="userSpaceOnUse" gradientTransform="rotate(131.08 49.24 22.96)">
      <stop stop-color="white"/>
      <stop offset="1" stop-color="white" stop-opacity="0"/>
    </radialGradient>
    <radialGradient id="paint7_radial" cx="36.88" cy="29.14" r="13.58" gradientUnits="userSpaceOnUse" gradientTransform="rotate(137.62 36.88 29.14)">
      <stop stop-color="#FFA984"/>
      <stop offset="1" stop-color="#F7636B" stop-opacity="0"/>
    </radialGradient>
    <linearGradient id="paint8_linear" x1="44.65" y1="27.9" x2="24.25" y2="48.3" gradientUnits="userSpaceOnUse">
      <stop stop-color="#EF7744"/>
      <stop offset="0.33" stop-color="#E50914"/>
      <stop offset="0.66" stop-color="#A70D53"/>
      <stop offset="1" stop-color="#792A95"/>
    </linearGradient>
  </defs>
</svg>
